<svg xmlns="http://www.w3.org/2000/svg" viewBox="112 22 298 457" role="img" aria-labelledby="title">
<title id="title">LAVA LABS 로고</title>
<path d="M359,108 L361,115 L365,120 L372,124 L380,126 L373,129 L367,134 L364,140 L362,151 L359,142 L356,135 L351,131 L342,127 L351,124 L356,119 Z M362,259 L371,268 L379,281 L386,296 L390,310 L389,324 L385,335 L379,343 L372,348 L364,351 L353,351 L343,348 L334,343 L326,337 L318,331 L329,331 L341,328 L350,322 L357,314 L362,305 L365,295 L365,284 Z M247,43 L257,47 L267,53 L275,61 L281,70 L286,81 L289,94 L289,106 L286,119 L281,132 L276,142 L272,151 L272,168 L276,157 L282,144 L290,135 L300,128 L311,124 L323,123 L319,130 L319,138 L322,146 L331,154 L339,163 L346,174 L351,187 L353,202 L352,216 L348,231 L342,245 L335,257 L326,267 L316,276 L304,283 L290,289 L280,294 L289,303 L301,314 L310,325 L317,338 L322,351 L324,366 L323,381 L319,396 L313,409 L304,421 L294,431 L282,439 L268,445 L253,448 L238,448 L222,445 L208,439 L196,431 L186,421 L179,409 L174,396 L171,382 L171,368 L174,354 L179,341 L185,330 L192,322 L199,315 L203,308 L205,300 L205,292 L201,284 L194,277 L185,269 L177,260 L169,249 L163,237 L159,224 L157,211 L158,198 L161,185 L166,173 L173,163 L182,154 L192,146 L205,140 L219,136 L217,146 L217,157 L220,168 L227,178 L235,185 L232,174 L232,163 L235,151 L241,140 L249,130 L258,122 L267,113 L273,103 L277,91 L277,80 L274,69 L268,60 L260,52 L252,47 Z M240,147 L248,155 L254,164 L258,173 L260,183 L259,194 L255,205 L250,214 L244,221 L238,213 L233,205 L229,196 L228,186 L230,176 L234,166 Z M305,188 L300,199 L294,209 L286,217 L276,223 L266,227 L258,228 L260,219 L265,210 L272,201 L281,194 L291,190 Z M181,202 L194,204 L206,208 L217,214 L225,223 L231,232 L233,241 L222,239 L212,235 L203,229 L195,222 L189,214 Z M236,221 L244,228 L249,236 L253,245 L255,254 L255,274 L255,302 L254,324 L253,345 L252,367 L257,363 L264,355 L270,350 L277,348 L286,348 L278,338 L271,329 L267,319 L265,309 L265,299 L269,299 L274,301 L278,305 L280,311 L280,324 L284,333 L290,342 L298,351 L303,361 L303,370 L297,370 L289,366 L282,362 L274,360 L266,361 L259,366 L252,374 L245,381 L240,384 L239,374 L239,356 L240,336 L241,315 L241,294 L241,274 L240,258 L236,247 L230,238 L222,231 L214,226 L204,222 L194,220 L184,220 L194,229 L204,236 L214,241 L223,243 L231,243 L236,241 L236,227 Z M227,290 L218,290 L212,293 L209,298 L209,304 L213,309 L219,311 L226,311 L226,327 L224,340 L220,352 L213,362 L205,370 L198,378 L194,387 L194,399 L198,412 L205,422 L215,430 L226,436 L218,430 L211,422 L206,413 L204,403 L205,393 L209,384 L215,376 L223,370 L232,367 L241,367 L241,356 L240,337 L240,318 L240,299 L236,294 Z" fill="#61B1DC" fill-rule="evenodd"/>
</svg>
